<svg width="563" height="563" viewBox="0 0 563 563" fill="none" xmlns="http://www.w3.org/2000/svg">
<path d="M429.38 107.864C432.84 110.764 434.26 112.594 434.69 117.114C434.05 124.774 427.9 129.614 422.69 134.764C421.92 135.534 421.15 136.294 420.36 137.094C417.82 139.624 415.28 142.144 412.74 144.664C410.96 146.434 409.19 148.204 407.42 149.964C403.24 154.144 399.05 158.304 394.86 162.474C386.92 170.364 378.99 178.264 371.06 186.164C368.47 188.754 365.87 191.334 363.27 193.914C361.66 195.514 360.06 197.114 358.45 198.704C357.74 199.414 357.02 200.124 356.28 200.854C352.35 204.784 348.59 208.814 344.98 213.044C342.21 216.204 339.23 219.154 336.26 222.114C335.66 222.714 335.07 223.314 334.45 223.924C331.91 226.464 329.39 228.854 326.58 231.094C324.17 232.854 324.17 232.854 322.38 235.864C321.96 238.904 321.96 238.904 322.38 241.864C325.99 244.274 327.12 244.584 331.38 243.864C337.31 239.544 342.42 233.954 347.57 228.754C348.34 227.984 349.12 227.204 349.92 226.404C351.59 224.724 353.25 223.044 354.92 221.374C357.56 218.714 360.2 216.064 362.84 213.414C370.34 205.884 377.84 198.354 385.34 190.814C389.93 186.184 394.53 181.574 399.14 176.954C400.89 175.194 402.64 173.434 404.39 171.674C406.82 169.224 409.27 166.774 411.71 164.324C412.43 163.594 413.15 162.864 413.89 162.114C414.56 161.444 415.23 160.784 415.92 160.094C416.78 159.224 416.78 159.224 417.66 158.344C420.79 155.654 422.71 154.854 426.88 154.924C430.38 155.864 430.38 155.864 432.82 157.864C435.02 162.084 435.4 165.224 434.38 169.864C433.18 171.674 433.18 171.674 431.55 173.444C430.91 174.134 430.27 174.824 429.62 175.544C425.66 179.654 421.65 183.704 417.59 187.724C415.97 189.334 414.34 190.954 412.72 192.574C408.7 196.584 404.66 200.594 400.63 204.604C397.21 208.004 393.79 211.404 390.38 214.804C388.79 216.384 387.21 217.964 385.62 219.544C380.93 224.194 376.39 228.904 372.09 233.924C368.71 237.754 365.07 241.324 361.45 244.924C360.63 245.754 359.8 246.584 358.94 247.434C357.21 249.174 355.47 250.914 353.73 252.644C351.05 255.314 348.39 257.984 345.72 260.654C344.03 262.354 342.34 264.044 340.64 265.734C339.84 266.534 339.04 267.334 338.22 268.164C337.11 269.264 337.11 269.264 335.98 270.394C335.33 271.034 334.69 271.684 334.02 272.354C332.38 273.864 332.38 273.864 330.38 274.864C328.44 274.744 326.5 274.614 324.57 274.444C314.62 273.544 314.62 273.544 305.38 276.864C304.77 277.194 304.16 277.524 303.53 277.864C297.9 281.314 294.63 286.654 292.76 292.934C291.34 300.114 292.85 306.014 296.79 312.004C301.72 318.284 307.27 321.094 315.11 322.274C322.96 322.704 329.29 320.414 335.23 315.254C339.23 310.954 342.33 305.674 342.41 299.664C342.13 296.614 341.75 293.594 341.27 290.574C340.93 287.424 340.71 284.914 342.46 282.164C343.25 281.324 343.25 281.324 344.04 280.454C344.68 279.754 345.33 279.064 345.99 278.344C351.3 272.834 356.7 267.404 362.12 261.994C363.45 260.664 364.78 259.334 366.11 257.994C368.88 255.224 371.66 252.454 374.43 249.684C378 246.124 381.55 242.564 385.11 239.004C387.85 236.254 390.59 233.514 393.33 230.774C394.65 229.464 395.96 228.154 397.27 226.834C399.1 225.004 400.93 223.184 402.76 221.354C403.57 220.544 403.57 220.544 404.4 219.704C409.16 214.984 409.16 214.984 413.69 214.554C417.97 214.914 419.43 215.824 422.38 218.864C423.64 222.644 423.9 224.864 423.38 228.864C418.62 237.014 410.85 243.574 404.16 250.114C402.1 252.134 400.04 254.154 397.99 256.184C392.17 261.944 386.34 267.684 380.48 273.414C376.89 276.934 373.31 280.464 369.74 284.014C368.38 285.354 367.02 286.694 365.65 288.024C363.74 289.884 361.85 291.754 359.96 293.634C359.39 294.174 358.82 294.724 358.24 295.284C355.65 297.904 354.44 299.434 353.93 303.134C354.15 305.924 354.15 305.924 356 307.804C359.22 309.244 360.99 308.714 364.38 307.864C366.61 306.454 366.61 306.454 368.63 304.424C369.48 303.624 370.32 302.824 371.2 301.994C372.26 300.954 373.32 299.914 374.38 298.864C375.07 298.184 375.77 297.504 376.48 296.804C387.48 286.004 387.48 286.004 397.87 274.604C399.7 272.494 401.6 270.474 403.57 268.484C404.2 267.844 404.83 267.194 405.49 266.524C408.34 264.024 410.55 262.974 414.32 262.484C418.12 262.954 419.67 264.224 422.38 266.864C423.95 270.004 423.9 273.444 423.38 276.864C421.16 281.184 418.1 284.434 414.69 287.834C414.12 288.404 413.55 288.984 412.96 289.574C411.09 291.464 409.2 293.344 407.32 295.224C406.01 296.534 404.7 297.854 403.39 299.164C400.66 301.914 397.91 304.654 395.17 307.394C391.65 310.904 388.14 314.434 384.63 317.964C381.93 320.674 379.23 323.384 376.52 326.084C375.22 327.384 373.93 328.684 372.64 329.984C370.83 331.804 369.02 333.604 367.2 335.414C366.67 335.954 366.14 336.494 365.59 337.054C360.98 341.594 360.98 341.594 357.38 341.864C355.71 341.544 354.04 341.214 352.38 340.864C344.97 340.294 338.44 341.934 332.57 346.554C327.54 351.224 324.66 357.634 324.07 364.424C324.19 370.604 326.17 376.144 330.08 380.954C335.48 386.134 341.46 388.694 348.96 388.954C357.02 388.474 362.8 385.884 368.26 379.924C372.19 375.314 373.66 371.304 373.57 365.244C373.56 364.294 373.55 363.354 373.55 362.384C373.48 359.734 373.48 359.734 372.38 356.864C371.59 352.464 371.44 350.234 374.01 346.494C376.42 343.794 378.94 341.244 381.54 338.714C382.49 337.764 383.44 336.814 384.38 335.864C386.36 333.874 388.36 331.904 390.37 329.944C392.93 327.434 395.46 324.904 397.99 322.354C399.94 320.384 401.9 318.434 403.87 316.494C405.27 315.114 406.65 313.724 408.03 312.324C415.14 305.434 415.14 305.434 419.33 304.714C422.94 304.894 424.61 305.564 427.38 307.864C429.64 310.774 430 314.104 429.86 317.754C428.55 323.554 422.78 327.494 418.61 331.384C417.94 332.034 417.26 332.674 416.57 333.334C415.22 334.624 413.84 335.894 412.45 337.144C408.23 341.154 406.56 343.964 406.34 349.834C406.36 350.504 406.37 351.174 406.38 351.864C406.38 352.724 406.39 353.584 406.39 354.474C406.43 355.184 406.47 355.884 406.5 356.614C406.58 367.974 403.18 379.704 395.28 388.094C389.06 393.754 382.61 398.004 375.26 402.054C373.53 403.024 371.8 404.004 370.07 404.974C368.31 405.964 366.55 406.954 364.79 407.944C359.62 410.854 354.5 413.864 349.38 416.864C340.03 422.334 330.66 427.754 321.28 433.164C316.17 436.094 311.07 439.044 305.98 442.014C303.61 443.404 301.23 444.794 298.85 446.174C297.17 447.154 295.5 448.134 293.83 449.114C292.81 449.714 291.79 450.304 290.74 450.914C289.85 451.434 288.95 451.964 288.04 452.494C277.35 457.994 264.75 458.284 253.38 454.864C250.27 453.554 247.33 451.994 244.38 450.364C243.55 449.914 242.73 449.474 241.88 449.014C234.4 444.954 227.07 440.644 219.76 436.274C215.21 433.574 210.64 430.904 206.07 428.244C205.07 427.654 204.06 427.074 203.03 426.464C195.63 422.154 188.2 417.894 180.75 413.644C176.67 411.324 172.59 408.984 168.52 406.654C166.55 405.534 164.58 404.404 162.6 403.284C160.25 401.944 157.91 400.594 155.57 399.244C154.6 398.694 154.6 398.694 153.61 398.134C142.72 391.794 135.66 382.754 131.38 370.864C130.55 367.354 130.25 364.104 130.24 360.504C130.23 359.444 130.23 358.384 130.22 357.294C130.22 356.144 130.22 354.984 130.22 353.794C130.21 352.574 130.21 351.354 130.2 350.094C130.19 346.744 130.18 343.394 130.18 340.044C130.18 337.944 130.17 335.844 130.17 333.754C130.15 327.184 130.14 320.614 130.14 314.044C130.14 306.474 130.12 298.914 130.09 291.344C130.07 285.484 130.06 279.624 130.06 273.764C130.06 270.274 130.05 266.784 130.03 263.284C130.01 259.384 130.02 255.484 130.02 251.574C130.01 250.434 130.01 249.294 130 248.114C130.06 234.944 134 225.564 142.82 215.864C147.91 211.004 153.91 207.684 159.99 204.224C163.68 202.124 167.35 199.974 171.02 197.824C172.96 196.694 174.91 195.564 176.85 194.444C178.85 193.274 180.85 192.094 182.83 190.914C185.37 189.414 187.95 188.064 190.59 186.744C207.68 177.814 220.22 163.884 233.48 150.194C238.51 145.014 243.59 139.864 248.66 134.704C250.41 132.914 252.16 131.124 253.9 129.324C254.97 128.224 256.04 127.134 257.1 126.044C257.58 125.544 258.06 125.044 258.55 124.534C261.96 121.054 264.49 119.144 269.32 118.424C273.42 119.014 274.78 120.734 277.38 123.864C278.93 126.974 278.67 129.424 278.38 132.864C275.33 138.274 271.14 142.414 266.77 146.784C266.01 147.554 265.25 148.324 264.46 149.114C261.95 151.644 259.44 154.174 256.92 156.694C255.17 158.454 253.42 160.214 251.67 161.974C248 165.664 244.33 169.334 240.66 173.014C236.88 176.794 233.12 180.574 229.37 184.364C224.83 188.944 220.28 193.514 215.72 198.084C213.98 199.824 212.25 201.564 210.52 203.314C208.11 205.754 205.68 208.174 203.25 210.594C202.54 211.324 201.83 212.044 201.1 212.794C197.37 216.464 194.89 218.824 189.38 218.864C187.27 218.444 187.27 218.444 185.38 217.864C177.7 217.104 170.31 218.364 164.07 223.114C158.69 228.624 156.3 234.324 156 241.984C156.1 248.194 157.63 252.894 161.38 257.864C167.03 262.964 173.1 265.374 180.63 266.244C189.84 265.314 195.88 262.284 201.82 255.184C204.64 250.994 205.65 247.584 205.57 242.554C205.56 241.114 205.56 241.114 205.54 239.634C205.4 237.184 205 235.054 204.44 232.674C204.37 228.474 204.51 228.224 207.17 225.344C207.81 224.644 208.45 223.944 209.12 223.214C213.08 219.094 217.1 215.034 221.17 211.004C222.79 209.394 224.42 207.774 226.04 206.154C230.06 202.144 234.1 198.134 238.13 194.124C241.55 190.724 244.97 187.324 248.38 183.924C249.97 182.344 251.55 180.764 253.14 179.184C257.77 174.584 262.25 169.934 266.5 164.974C270.82 160.124 275.51 155.594 280.11 150.994C281.24 149.874 282.37 148.744 283.49 147.614C285.84 145.264 288.18 142.924 290.53 140.584C293.54 137.574 296.55 134.574 299.55 131.564C301.87 129.244 304.19 126.924 306.51 124.604C307.62 123.494 308.72 122.384 309.83 121.274C311.38 119.734 312.92 118.184 314.47 116.644C315.35 115.764 316.23 114.894 317.13 113.984C320.28 111.024 321.9 109.924 326.26 109.364C329.84 109.474 330.39 109.874 333.38 112.304C335.61 115.554 336.26 118.544 335.95 122.464C335.28 125.274 334.35 126.474 332.4 128.584C331.76 129.284 331.12 129.974 330.47 130.684C326.82 134.494 323.1 138.234 319.34 141.934C318.46 142.804 317.58 143.674 316.68 144.574C314.79 146.444 312.9 148.324 311 150.194C308.01 153.154 305.02 156.124 302.03 159.094C301 160.114 299.97 161.144 298.95 162.164C298.43 162.674 297.92 163.184 297.39 163.704C290.44 170.614 283.49 177.514 276.52 184.394C271.81 189.064 267.1 193.734 262.4 198.414C259.92 200.884 257.44 203.354 254.94 205.804C252.16 208.544 249.4 211.294 246.64 214.044C245.82 214.854 244.99 215.664 244.14 216.494C239.83 220.804 239.83 220.804 237.24 226.224C237.17 229.094 237.17 229.094 239.38 231.864C242.16 232.964 242.16 232.964 245.38 232.864C250.48 229.974 254.36 226.154 258.46 222.004C259.48 220.974 259.48 220.974 260.52 219.934C262.75 217.694 264.98 215.444 267.21 213.194C268.76 211.634 270.32 210.074 271.88 208.514C275.96 204.414 280.04 200.304 284.12 196.194C290.67 189.614 297.22 183.034 303.77 176.454C306.06 174.154 308.35 171.854 310.63 169.544C312.03 168.144 313.43 166.744 314.82 165.344C315.46 164.694 316.1 164.054 316.76 163.384C322.17 157.964 322.17 157.964 327.26 157.554C330.15 157.614 331.26 157.794 333.82 159.304C336.1 163.044 336.56 166.514 336.38 170.864C334.76 175.114 331.46 177.894 328.24 181.004C326.5 182.744 324.91 184.544 323.32 186.424C319.86 190.434 316.18 194.184 312.44 197.924C311.87 198.504 311.3 199.084 310.71 199.674C307.77 202.604 304.77 205.414 301.61 208.114C297.54 211.664 293.77 215.444 290.04 219.364C288.62 220.834 287.2 222.314 285.78 223.784C285.04 224.554 284.3 225.334 283.53 226.124C278.73 231.104 273.89 236.044 269.05 240.994C264.81 245.324 260.6 249.674 256.41 254.064C252.34 258.324 248.23 262.534 244.09 266.724C242.53 268.324 240.98 269.934 239.45 271.554C226.24 285.564 226.24 285.564 217.35 285.874C215.19 285.784 213.08 285.584 210.94 285.304C204.62 284.524 200.59 286.744 195.63 290.554C190.25 295.474 187.78 301.844 187.07 308.984C187.64 316.064 189.85 321.874 195.07 326.804C200.67 331.214 207.07 333.534 214.27 333.214C221.28 332.044 227.5 328.984 232.38 323.864C236.01 318.444 238.23 312.334 236.99 305.794C236.63 304.434 236.26 303.084 235.89 301.734C235.09 298.784 234.81 296.904 235.38 293.864C239.63 288.164 244.93 283.164 249.96 278.154C250.69 277.414 251.42 276.684 252.17 275.934C254.6 273.494 257.03 271.064 259.47 268.634C261.22 266.874 262.97 265.124 264.72 263.374C268.96 259.114 273.21 254.864 277.46 250.614C280.91 247.164 284.36 243.714 287.82 240.254C297.61 230.454 307.4 220.654 317.2 210.864C317.72 210.334 318.25 209.804 318.79 209.264C319.32 208.734 319.85 208.214 320.39 207.664C328.96 199.094 337.53 190.524 346.09 181.944C354.89 173.134 363.69 164.324 372.49 155.524C377.44 150.584 382.38 145.634 387.31 140.694C391.95 136.044 396.59 131.404 401.23 126.774C402.94 125.064 404.64 123.354 406.34 121.644C408.66 119.324 410.98 117.004 413.31 114.684C413.99 114.004 414.67 113.324 415.37 112.614C415.99 111.994 416.61 111.384 417.25 110.744C417.79 110.204 418.32 109.674 418.87 109.124C422.31 106.254 425.31 106.784 429.38 107.864Z" fill="#444444"/>
<circle cx="349.5" cy="364.5" r="13.5" fill="#444444"/>
<circle cx="180.5" cy="241.5" r="13.5" fill="#444444"/>
<circle cx="211.5" cy="308.5" r="13.5" fill="#444444"/>
<circle cx="317.5" cy="298.5" r="13.5" fill="#444444"/>
<circle cx="281.5" cy="281.5" r="267" stroke="#444444" stroke-width="29"/>
</svg>
